<svg xmlns="http://www.w3.org/2000/svg" xmlns:xlink="http://www.w3.org/1999/xlink" width="500" zoomAndPan="magnify" viewBox="0 0 375 374.999991" height="500" preserveAspectRatio="xMidYMid meet" version="1.0"><defs><clipPath id="fd464dcdc1"><path d="M 16.871094 16.871094 L 346.871094 16.871094 L 346.871094 346.871094 L 16.871094 346.871094 Z M 16.871094 16.871094 " clip-rule="nonzero"/></clipPath></defs><path fill="#00e5e1" d="M 181.765625 181.246094 L 125.355469 278.945312 L 181.765625 222.085938 L 238.175781 278.945312 L 181.765625 181.246094 " fill-opacity="1" fill-rule="nonzero"/><path fill="#00adef" d="M 96.699219 278.945312 L 181.765625 131.605469 L 76.863281 237.351562 Z M 96.699219 278.945312 " fill-opacity="1" fill-rule="nonzero"/><path fill="#00e5e1" d="M 76.863281 237.351562 L 181.765625 131.605469 L 266.832031 278.945312 L 181.765625 55.652344 L 76.863281 237.351562 " fill-opacity="1" fill-rule="nonzero"/><path fill="#00adef" d="M 181.765625 55.652344 L 266.832031 278.945312 L 286.667969 237.351562 Z M 181.765625 55.652344 " fill-opacity="1" fill-rule="nonzero"/><g clip-path="url(#fd464dcdc1)"><path fill="#00e5e1" d="M 181.765625 318.730469 C 106.121094 318.730469 44.800781 257.410156 44.800781 181.765625 C 44.800781 106.121094 106.121094 44.800781 181.765625 44.800781 C 257.410156 44.800781 318.730469 106.121094 318.730469 181.765625 C 318.730469 257.410156 257.410156 318.730469 181.765625 318.730469 Z M 181.765625 16.84375 C 90.683594 16.84375 16.84375 90.683594 16.84375 181.765625 C 16.84375 272.847656 90.683594 346.6875 181.765625 346.6875 C 272.847656 346.6875 346.6875 272.847656 346.6875 181.765625 C 346.6875 90.683594 272.847656 16.84375 181.765625 16.84375 " fill-opacity="1" fill-rule="nonzero"/></g></svg>