<svg xmlns="http://www.w3.org/2000/svg" xmlns:xlink="http://www.w3.org/1999/xlink" width="500" zoomAndPan="magnify" viewBox="0 0 375 374.999991" height="500" preserveAspectRatio="xMidYMid meet" version="1.0"><defs><g/><clipPath id="322e73f352"><path d="M 12.890625 8.789062 L 345 8.789062 L 345 366.539062 L 12.890625 366.539062 Z M 12.890625 8.789062 " clip-rule="nonzero"/></clipPath></defs><g clip-path="url(#322e73f352)"><path fill="#000000" d="M 170.242188 364.523438 C 118.425781 338.859375 86.457031 314.636719 69.644531 288.296875 C 55.492188 266.109375 53.925781 244.40625 54.671875 225.804688 C 45 224.191406 35.128906 222.105469 25.296875 219.609375 L 12.917969 216.484375 L 54.632812 151.542969 C 48.539062 109.308594 34.105469 89.992188 33.957031 89.808594 L 27.535156 81.742188 L 36.378906 76.308594 C 77.089844 51.265625 96.339844 14.203125 96.53125 13.828125 L 99.097656 8.789062 L 249.546875 8.789062 L 252.105469 13.820312 C 252.296875 14.195312 271.539062 51.273438 312.265625 76.324219 L 321.152344 81.75 L 314.625 89.890625 C 314.515625 90.03125 301.023438 108.160156 294.601562 147.796875 L 308.980469 132.613281 C 311.15625 130.3125 314.230469 129.039062 317.625 129.039062 C 319.742188 129.039062 322.007812 129.535156 324.347656 130.503906 C 327.777344 131.925781 331.5 134.4375 334.808594 137.570312 C 338.136719 140.71875 340.851562 144.292969 342.449219 147.632812 C 346.605469 156.316406 342.535156 161.644531 341.183594 163.070312 L 302.046875 204.414062 C 313.214844 218.8125 315.703125 229.457031 309.4375 236.078125 L 304.125 241.683594 C 302.472656 243.453125 299.464844 245.578125 294.585938 245.578125 C 294.277344 245.578125 293.957031 245.570312 293.640625 245.546875 C 292.5 258.433594 288.652344 276.714844 272.964844 296.84375 C 255.144531 319.714844 224.21875 341.851562 178.433594 364.523438 L 174.351562 366.539062 Z M 170.242188 364.523438 " fill-opacity="1" fill-rule="nonzero"/></g><path fill="#5ce1e6" d="M 92.808594 274.351562 C 91.066406 277.542969 87.910156 283.648438 85.09375 290.726562 C 66.320312 266.929688 64.714844 244.507812 66.1875 220.300781 C 71.648438 221.027344 77.035156 221.617188 82.355469 222.035156 C 81.535156 235.746094 81.835938 246.722656 85.351562 257.765625 C 83.402344 261.378906 81.757812 265.167969 80.308594 269.046875 L 79.527344 271.171875 L 81.757812 271.699219 Z M 242.691406 20.007812 L 105.953125 20.007812 C 102.378906 26.554688 82.660156 60.328125 44.101562 84.714844 C 48.070312 90.535156 59.71875 110.277344 65.433594 147.964844 L 78.230469 128.046875 C 75.152344 114.433594 71.097656 102.027344 66.125 91.195312 L 65.457031 89.722656 L 66.746094 88.738281 C 91.609375 69.78125 107.398438 48.300781 114.578125 37.175781 L 115.175781 36.253906 L 233.453125 36.253906 L 234.050781 37.175781 C 241.238281 48.292969 257.019531 69.78125 281.882812 88.738281 L 283.171875 89.722656 L 282.503906 91.195312 C 279.640625 97.46875 277.042969 104.3125 274.78125 111.601562 L 278.058594 112.386719 L 277.277344 114.527344 C 277.082031 115.046875 274.902344 120.867188 270.058594 129.597656 C 267.140625 142.917969 265.203125 157.363281 264.324219 172.554688 C 264.203125 174.570312 264.125 176.617188 264.085938 178.757812 C 266.675781 180.460938 268.988281 182.152344 270.691406 183.460938 L 280.558594 173.042969 C 283.820312 118.835938 299.742188 91.738281 304.519531 84.730469 C 265.984375 60.328125 246.265625 26.554688 242.691406 20.007812 Z M 242.691406 20.007812 " fill-opacity="1" fill-rule="nonzero"/><path fill="#a6a6a6" d="M 272.4375 173.019531 C 271.675781 185.914062 272.625 197.96875 273.53125 209.632812 C 275.34375 232.746094 276.917969 252.710938 265.15625 273.761719 C 252.359375 296.703125 224.171875 319.210938 178.976562 342.558594 L 174.316406 344.96875 L 169.652344 342.558594 C 124.457031 319.210938 96.277344 296.703125 83.472656 273.761719 C 71.710938 252.703125 73.285156 232.746094 75.089844 209.636719 C 76.011719 197.96875 76.960938 185.914062 76.199219 173.019531 C 73.941406 134.738281 65.457031 109.230469 58.742188 94.574219 L 55.429688 87.371094 L 76.890625 92.398438 L 121.09375 46.675781 L 110.660156 28.296875 L 110.761719 28.136719 L 237.875 28.136719 L 238.042969 28.398438 L 231.242188 40.308594 L 278.152344 90.976562 L 293.105469 87.582031 L 289.886719 94.582031 C 283.179688 109.230469 274.6875 134.738281 272.4375 173.019531 Z M 272.4375 173.019531 " fill-opacity="1" fill-rule="nonzero"/><path fill="#012130" d="M 121.101562 46.667969 L 76.898438 92.390625 L 55.4375 87.363281 L 55.363281 87.179688 L 61.828125 82.253906 C 75.121094 72.128906 85.722656 61.226562 93.703125 51.722656 L 101.582031 54.9375 L 97.433594 47.148438 C 98.355469 45.976562 99.238281 44.835938 100.085938 43.726562 L 104.21875 45.109375 L 102.746094 40.113281 C 104.753906 37.347656 106.429688 34.859375 107.785156 32.757812 L 110.675781 28.28125 Z M 286.816406 82.261719 C 262.960938 64.089844 247.792969 43.449219 240.867188 32.765625 L 238.042969 28.390625 L 231.242188 40.300781 L 278.152344 90.96875 L 293.105469 87.574219 L 293.273438 87.1875 Z M 286.816406 82.261719 " fill-opacity="1" fill-rule="nonzero"/><path fill="#edf2f8" d="M 268.832031 227.605469 L 231.617188 214.578125 C 231.15625 216.539062 230.585938 218.390625 229.972656 220.292969 C 229.507812 221.578125 229.085938 222.890625 228.535156 224.136719 C 228.015625 225.410156 227.503906 226.671875 226.902344 227.90625 C 224.628906 232.867188 221.9375 237.636719 218.789062 242.078125 C 215.601562 246.484375 212.242188 250.761719 208.3125 254.507812 C 207.359375 255.460938 206.425781 256.4375 205.363281 257.292969 L 202.300781 259.929688 C 201.308594 260.828125 200.160156 261.570312 199.082031 262.371094 C 197.992188 263.160156 196.90625 263.953125 195.796875 264.703125 C 197.640625 262.734375 199.585938 260.914062 201.386719 258.953125 C 203.140625 256.941406 205.007812 255.066406 206.644531 252.972656 L 209.164062 249.910156 L 211.53125 246.730469 C 212.351562 245.699219 213.074219 244.597656 213.800781 243.507812 C 214.523438 242.398438 215.316406 241.359375 215.972656 240.210938 L 218.003906 236.839844 C 218.65625 235.691406 219.253906 234.527344 219.882812 233.378906 C 220.535156 232.234375 221.054688 231.039062 221.652344 229.867188 C 222.246094 228.695312 222.757812 227.496094 223.269531 226.292969 C 224.324219 223.898438 225.1875 221.433594 226.054688 218.972656 C 226.824219 216.648438 227.511719 214.214844 228 211.933594 L 222.425781 190.96875 C 216.539062 204.023438 207.335938 215.578125 195.875 224.167969 C 199.082031 219.710938 202.140625 214.375 204.347656 209.351562 C 195.8125 218.988281 184.730469 226.566406 172.886719 231.636719 C 174.609375 228.550781 175.980469 224.953125 176.167969 221.417969 C 180.550781 218.269531 184.527344 214.273438 187.839844 210.019531 C 183.132812 213.695312 177.492188 217.105469 171.917969 219.414062 C 159.632812 229.503906 141.355469 242.777344 121.757812 250.964844 L 150.917969 273.378906 L 148.628906 284.792969 L 163.480469 289.878906 L 161.269531 347.335938 C 165.441406 349.542969 169.785156 351.769531 174.320312 354.035156 C 184.339844 349.046875 193.429688 344.179688 201.703125 339.410156 L 197.269531 324.460938 L 204.28125 330.019531 L 198.128906 316.917969 L 203.683594 311.753906 C 203.683594 289.121094 217.386719 276.21875 217.386719 276.21875 C 212.027344 286.34375 210.839844 296.472656 210.839844 296.472656 C 220.574219 272.046875 244.597656 251.246094 244.597656 251.246094 C 249.554688 245.855469 254.863281 240.800781 260.679688 236.378906 C 255.71875 241.730469 250.949219 247.1875 246.390625 252.789062 C 241.828125 258.402344 237.507812 264.191406 233.832031 270.339844 C 230.179688 276.488281 226.992188 282.949219 225.179688 289.710938 C 224.730469 291.429688 224.378906 293.035156 224.148438 294.804688 L 223.511719 300.199219 L 222.195312 311 L 222.09375 311.769531 L 221.511719 312.273438 L 215.332031 317.730469 C 216.074219 319.808594 216.773438 321.894531 217.433594 323.996094 C 217.9375 325.617188 218.410156 327.261719 218.867188 328.902344 C 270.605469 295.160156 280.953125 266.921875 282.628906 242.3125 C 276.183594 233.628906 270.09375 228.597656 268.832031 227.605469 Z M 192.609375 246.40625 C 191.164062 247.894531 189.707031 249.351562 188.171875 250.742188 C 184.378906 254.230469 180.160156 257.292969 175.75 259.96875 C 174.625 260.617188 173.507812 261.253906 172.367188 261.875 C 171.210938 262.457031 170.027344 262.96875 168.855469 263.519531 L 167.085938 264.285156 C 166.488281 264.519531 165.878906 264.734375 165.257812 264.9375 C 164.03125 265.339844 162.8125 265.75 161.582031 266.09375 C 162.628906 265.332031 163.691406 264.621094 164.746094 263.929688 L 166.335938 262.898438 L 167.871094 261.78125 C 168.894531 261.035156 169.949219 260.347656 170.957031 259.609375 C 171.941406 258.828125 172.949219 258.074219 173.949219 257.332031 C 176.921875 255.019531 179.859375 252.65625 182.699219 250.175781 C 182.363281 250.273438 182.03125 250.375 181.6875 250.476562 C 178 251.554688 174.253906 252.421875 170.476562 253.074219 C 168.589844 253.367188 166.699219 253.710938 164.800781 253.917969 L 161.960938 254.269531 L 159.097656 254.492188 C 157.199219 254.65625 155.285156 254.648438 153.382812 254.679688 C 151.476562 254.65625 149.570312 254.539062 147.667969 254.390625 L 158.851562 252.476562 C 162.558594 251.847656 166.21875 251.066406 169.855469 250.175781 C 173.46875 249.21875 177.050781 248.183594 180.566406 246.964844 C 181.449219 246.660156 182.316406 246.351562 183.1875 246.011719 C 184.0625 245.691406 184.921875 245.359375 185.785156 245.019531 C 187.460938 244.335938 189.195312 243.574219 190.714844 242.824219 C 192.59375 241.023438 194.453125 239.203125 196.292969 237.359375 C 199.84375 233.785156 203.316406 230.125 206.855469 226.402344 C 204.707031 231.09375 201.820312 235.378906 198.679688 239.457031 C 196.796875 241.871094 194.757812 244.179688 192.625 246.390625 L 192.632812 246.398438 C 192.640625 246.390625 192.625 246.40625 192.609375 246.40625 Z M 256.703125 288.71875 C 250.53125 297.152344 240.914062 304.007812 230.808594 306.691406 C 237.484375 300.503906 244.441406 293.46875 249.453125 285.878906 C 245.054688 288.609375 240.191406 290.554688 235.128906 291.664062 C 247.558594 283.226562 258.136719 272.101562 265.921875 259.261719 C 266.402344 269.707031 262.882812 280.296875 256.703125 288.71875 Z M 144.519531 284.699219 C 139.828125 282.894531 134.40625 282.429688 129.570312 283.507812 C 129.203125 279.667969 128.910156 275.953125 128.542969 272.109375 C 127.164062 275.566406 126.070312 279.574219 125.070312 283.171875 C 122.699219 277 121.125 270.363281 120.613281 263.78125 C 119.992188 266.039062 119.625 268.441406 119.007812 270.691406 C 114.640625 268.644531 110.203125 267.363281 105.457031 266.550781 C 106.023438 262.664062 107.273438 258.585938 108.949219 255.035156 C 106.957031 257.238281 104.875 259.734375 102.875 261.9375 C 104.753906 255.390625 107.902344 249.214844 112.058594 243.824219 L 109.46875 242.375 L 110.707031 240.542969 C 111.53125 239.335938 112.214844 238.007812 112.777344 236.636719 L 109.570312 231.804688 C 107.296875 234.132812 105.085938 236.597656 102.984375 239.101562 C 100.347656 242.25 97.859375 245.515625 95.523438 248.871094 C 93.160156 252.222656 91.058594 255.734375 89.101562 259.316406 C 87.519531 262.230469 86.15625 265.238281 84.953125 268.308594 L 110.359375 274.390625 L 111.585938 274.683594 L 111.871094 275.910156 L 114.050781 285.59375 C 117.175781 285.894531 120.238281 286.320312 123.308594 286.863281 C 126.863281 287.460938 130.398438 288.214844 133.894531 289.097656 C 137.386719 289.996094 140.859375 291.011719 144.25 292.285156 C 147.621094 293.570312 150.917969 295.105469 153.972656 297.015625 C 150.523438 295.960938 147.101562 295.050781 143.652344 294.230469 C 140.464844 293.515625 137.277344 292.859375 134.058594 292.292969 C 133.796875 297.527344 133.847656 302.773438 134.246094 308 C 129.507812 306.023438 124.511719 303.703125 120.078125 301.125 C 125.367188 308.785156 133.058594 315.226562 141.828125 318.34375 C 134.980469 318.832031 127.738281 318.089844 121.472656 315.257812 C 126.164062 319.304688 131.632812 322.5 137.554688 324.289062 C 137.664062 327.863281 137.882812 331.230469 138.671875 334.609375 C 144.425781 338.09375 150.609375 341.621094 157.277344 345.226562 L 159.292969 292.75 L 143.953125 287.5 Z M 330.722656 149.859375 C 330.683594 149.796875 330.628906 149.734375 330.582031 149.664062 C 330.445312 149.472656 330.296875 149.277344 330.148438 149.074219 C 330.054688 148.96875 329.964844 148.851562 329.878906 148.742188 C 329.753906 148.585938 329.636719 148.441406 329.507812 148.277344 C 329.375 148.113281 329.21875 147.953125 329.078125 147.789062 C 328.980469 147.664062 328.886719 147.554688 328.777344 147.441406 C 328.589844 147.238281 328.40625 147.035156 328.195312 146.820312 C 328.125 146.75 328.054688 146.664062 327.96875 146.585938 C 327.683594 146.292969 327.390625 146.003906 327.085938 145.710938 C 322.835938 141.679688 319.042969 140.222656 317.617188 140.222656 C 317.386719 140.222656 317.214844 140.257812 317.113281 140.328125 C 316.664062 141.082031 318.121094 145.300781 323.0625 149.96875 C 327.960938 154.613281 332.242188 155.84375 333.019531 155.355469 C 333.3125 154.820312 332.714844 152.65625 330.722656 149.859375 Z M 314.160156 144.980469 C 313.972656 144.617188 313.832031 144.269531 313.703125 143.933594 L 309.832031 148.019531 C 309.886719 149.820312 310.226562 154.789062 312.328125 161.0625 C 314.5 161.425781 319.71875 162.117188 326.699219 162.039062 L 329.582031 158.992188 C 326.527344 157.976562 323.109375 155.636719 320.253906 152.9375 C 317.5625 150.386719 315.398438 147.554688 314.160156 144.980469 Z M 317.378906 171.878906 L 322.890625 166.0625 C 319.183594 165.96875 316.152344 165.675781 314.003906 165.414062 C 314.910156 167.503906 316.027344 169.675781 317.378906 171.878906 Z M 297.214844 161.347656 C 297.136719 164.046875 297.402344 174.714844 306.195312 183.703125 L 314.5 174.933594 C 308.660156 165.808594 306.714844 157.15625 306.078125 151.992188 Z M 293.3125 165.472656 L 283.757812 175.554688 C 288.03125 177.679688 293.648438 178.152344 297.175781 178.214844 C 294.640625 173.390625 293.664062 168.808594 293.3125 165.472656 Z M 297.972656 182.285156 C 295.835938 182.285156 292.714844 182.144531 289.4375 181.539062 C 290.164062 184.820312 291.808594 190.347656 295.316406 195.1875 L 303.402344 186.648438 C 301.96875 185.207031 300.734375 183.726562 299.664062 182.246094 C 299.207031 182.269531 298.640625 182.285156 297.972656 182.285156 Z M 280.882812 178.601562 L 276.554688 183.167969 C 276.59375 185.539062 277.347656 194.230469 285.371094 205.683594 L 292.46875 198.1875 C 287.351562 191.472656 285.597656 183.570312 285.078125 180.445312 C 283.613281 179.964844 282.191406 179.359375 280.882812 178.601562 Z M 275.277344 200.433594 C 276.648438 201.722656 277.960938 202.746094 279.160156 203.550781 C 275.058594 196.597656 273.453125 190.859375 272.847656 187.074219 L 269.34375 190.78125 C 268.894531 191.535156 270.34375 195.761719 275.277344 200.433594 Z M 97.175781 222.804688 L 95.371094 222.765625 L 94.871094 217.253906 C 92.242188 217.160156 89.816406 216.828125 88.296875 216.585938 L 86.511719 220.585938 C 85.699219 233.046875 85.730469 243.109375 88.164062 252.832031 C 89.445312 250.695312 90.769531 248.601562 92.207031 246.570312 C 94.617188 243.085938 97.175781 239.730469 99.890625 236.488281 C 102.253906 233.675781 104.683594 230.976562 107.296875 228.347656 L 103.644531 222.859375 C 103.417969 222.859375 103.195312 222.867188 102.960938 222.867188 C 101.054688 222.875 99.121094 222.84375 97.175781 222.804688 Z M 243 173.21875 C 243.371094 172.832031 243.789062 172.523438 244.25 172.273438 C 247.925781 170.3125 254.246094 172.863281 260.089844 176.25 C 260.144531 174.910156 260.199219 173.59375 260.277344 172.296875 C 260.945312 160.984375 262.183594 150.074219 263.960938 139.71875 C 258.082031 148.757812 250.050781 159.339844 239.386719 169.941406 C 235.042969 174.25 230.09375 178.6875 224.535156 183.082031 L 231.777344 210.335938 L 231.972656 210.40625 L 243.410156 198.3125 C 242.535156 197.085938 241.695312 195.867188 240.953125 194.691406 C 236.121094 186.992188 235.011719 181.664062 237.6875 178.839844 Z M 270.839844 110.648438 C 273.003906 103.679688 275.445312 97.066406 278.160156 90.96875 C 255.316406 73.285156 240.136719 53.871094 231.25 40.308594 L 117.386719 40.308594 C 108.507812 53.878906 93.328125 73.277344 70.492188 90.976562 C 74.804688 100.664062 78.425781 111.507812 81.292969 123.28125 L 113.601562 72.988281 Z M 270.839844 110.648438 " fill-opacity="1" fill-rule="nonzero"/><path fill="#5ce1e6" d="M 99.082031 218.78125 C 168.398438 219.890625 211.964844 191.394531 236.394531 167.179688 C 252.554688 151.152344 262.683594 134.871094 268.1875 124.417969 L 236.167969 118.574219 C 228.894531 133.070312 216.453125 142.136719 216.453125 142.136719 C 222.015625 133.925781 223.761719 121.226562 223.761719 121.226562 C 212.695312 144.679688 184.007812 161.511719 183.109375 162.039062 L 200.039062 157.496094 C 169.800781 179.121094 131.105469 185.5625 129.902344 185.757812 C 169.367188 169.621094 180.695312 133.40625 180.695312 133.40625 C 175.230469 142.53125 159.78125 152.664062 159.292969 152.984375 C 172.28125 138.421875 176.640625 118.84375 176.640625 118.84375 C 166.21875 141.617188 134.367188 154.316406 134.367188 154.316406 C 167.46875 120.171875 152.226562 86.417969 152.226562 86.417969 C 136.347656 106.300781 110.390625 108.5625 99.449219 108.5625 C 97.796875 108.5625 96.5 108.507812 95.625 108.460938 L 30.785156 209.429688 C 48.839844 213.863281 66.453125 216.765625 83.195312 218.042969 L 96.386719 188.441406 Z M 180.835938 187.449219 C 185.527344 185.019531 190.210938 182.609375 194.671875 179.820312 C 196.941406 178.5 199.144531 177.050781 201.371094 175.640625 C 203.535156 174.152344 205.738281 172.707031 207.839844 171.125 C 212.121094 168.09375 216.253906 164.824219 220.230469 161.371094 C 224.25 157.976562 228.054688 154.339844 231.777344 150.617188 C 239.144531 143.082031 246.070312 135.035156 251.949219 126.132812 C 249.808594 131.03125 246.976562 135.609375 244 140.074219 C 240.953125 144.484375 237.65625 148.742188 234.097656 152.765625 C 226.992188 160.828125 218.945312 168.101562 210.210938 174.414062 C 201.480469 180.726562 192.042969 186.058594 182.179688 190.324219 C 172.289062 194.542969 161.984375 197.730469 151.46875 199.589844 C 161.558594 196.09375 171.375 192.125 180.835938 187.449219 Z M 98.914062 138.957031 C 98.914062 138.957031 113.671875 140.011719 125.847656 133.660156 C 125.847656 133.660156 112.671875 135.226562 102.890625 130.480469 C 102.890625 130.480469 128.917969 128.09375 145.945312 118.300781 C 145.945312 118.300781 133.476562 151.128906 86.542969 159.605469 Z M 246.273438 189.082031 C 244.101562 185.625 242.691406 182.648438 242.03125 180.167969 L 240.648438 181.625 C 239.898438 182.414062 240.285156 185.96875 244.402344 192.527344 C 248.484375 199.007812 254.941406 206.582031 262.605469 213.824219 C 267.824219 218.765625 273.144531 223.121094 278.128906 226.582031 L 280.371094 223.78125 L 280.371094 223.773438 C 275.316406 220.214844 270.058594 215.855469 265.117188 211.183594 C 257.214844 203.691406 250.523438 195.84375 246.273438 189.082031 Z M 268.589844 198.992188 C 268.0625 198.296875 267.582031 197.574219 267.15625 196.859375 C 267.148438 196.828125 267.132812 196.820312 267.132812 196.820312 C 265.125 193.410156 264.410156 190.078125 266.390625 187.984375 L 267.878906 186.417969 C 254.894531 176.484375 247.210938 174.664062 245.945312 176.003906 C 245.195312 176.792969 245.582031 180.351562 249.699219 186.914062 C 253.769531 193.394531 260.238281 200.96875 267.902344 208.210938 C 268.878906 209.132812 269.832031 210.011719 270.769531 210.863281 C 277.796875 216.871094 287.808594 216.382812 287.808594 216.382812 C 278.625 212.21875 271.515625 203.164062 268.589844 198.992188 Z M 225.824219 196.25 C 224.945312 193.378906 223.773438 189.796875 222.09375 187.316406 C 210.644531 196.929688 196.378906 204.023438 182.15625 208.628906 C 175.453125 210.792969 172.183594 217.238281 166.242188 221.019531 C 166.636719 228.03125 165.519531 235.125 163 241.683594 C 173.726562 238.613281 183.242188 233.417969 191.445312 225.867188 C 189.777344 229.199219 187.886719 232.683594 186.21875 236.023438 C 203.722656 227.765625 217.355469 213.65625 225.824219 196.25 Z M 202.109375 259.554688 C 209.980469 255.46875 217.355469 249.71875 223.007812 242.886719 C 221.480469 247.257812 219.96875 251.46875 217.757812 255.53125 C 226.675781 247.5625 234.367188 237.1875 239.042969 226.175781 C 249.46875 227.183594 259.945312 227.695312 270.421875 227.710938 C 256.789062 222.671875 243.683594 217.507812 230.050781 212.46875 C 225.96875 230.75 216.402344 247.453125 202.109375 259.554688 Z M 135.773438 250.648438 C 144.636719 256.90625 155.78125 259.199219 166.367188 256.820312 C 162.90625 261.671875 158.511719 265.960938 153.855469 269.691406 C 164.046875 270.15625 173.773438 266.835938 182.117188 260.96875 C 190.453125 255.097656 196.46875 246.390625 199.464844 236.644531 C 179.496094 245.609375 157.664062 250.414062 135.773438 250.648438 Z M 146.480469 286.792969 C 146.421875 284.808594 145.816406 282.769531 145.753906 280.785156 C 135.453125 270.039062 124.785156 259.011719 114.484375 248.265625 C 113.988281 243.390625 113.429688 238.417969 114.160156 233.574219 C 112.429688 232.203125 110.3125 231.324219 108.582031 229.953125 C 106.203125 232.605469 104.226562 234.644531 102.433594 237.722656 C 98.542969 244.398438 95.421875 251.53125 93.167969 258.921875 C 96.449219 254.941406 99.742188 251.042969 103.621094 247.648438 C 101.191406 253.917969 99.464844 260.648438 98.433594 267.292969 C 105.390625 269.179688 112.4375 271.3125 119.074219 274.109375 C 120.734375 279.492188 121.929688 284.777344 123.589844 290.152344 C 125.503906 290.625 126.925781 290.609375 128.839844 291.082031 C 132.128906 287.136719 136.648438 285.632812 141.691406 286.617188 C 141.8125 287.679688 141.628906 288.871094 141.75 289.925781 C 148.421875 291.671875 154.871094 293.648438 161.402344 295.851562 C 161.425781 294.105469 160.882812 292.988281 160.402344 291.316406 C 155.8125 289.855469 151.074219 288.246094 146.480469 286.792969 Z M 150.089844 320.667969 C 145.488281 318.210938 141.613281 314.855469 138.144531 310.960938 C 137.90625 304.613281 138.019531 298.246094 138.503906 291.910156 C 136.578125 291.6875 135.222656 290.886719 133.296875 290.664062 C 132.335938 292.796875 131.375 295.363281 130.414062 297.496094 C 126.667969 296.867188 122.511719 296.308594 118.71875 296.035156 C 117.828125 301.285156 117.222656 306.976562 116.332031 312.226562 C 121.371094 324.40625 131.640625 334.386719 143.777344 339.535156 C 142.226562 334.277344 142.085938 328.546875 142.535156 323.082031 C 145.1875 323.128906 147.855469 322.128906 150.089844 320.667969 Z M 252.160156 244.085938 C 239.6875 251.523438 228.226562 261.519531 219.394531 273.039062 C 219.417969 271.636719 220 270.289062 220.417969 268.953125 C 208.085938 277.429688 199.609375 291.894531 198.539062 306.820312 C 196.664062 308.535156 195.113281 309.992188 192.761719 310.96875 C 193.042969 314.4375 193.980469 317.988281 195.285156 321.21875 C 193.246094 320.144531 191.808594 319.003906 189.769531 317.925781 C 190.730469 327.214844 193.476562 336.316406 197.820312 344.582031 C 201.339844 341.527344 205.320312 338.71875 209.570312 336.789062 C 208.289062 328.734375 209.476562 320.445312 211.839844 312.644531 C 214.207031 304.84375 217.734375 297.449219 221.246094 290.089844 C 225.660156 280.839844 230.101562 271.535156 236.113281 263.238281 C 240.921875 256.59375 247.054688 250.507812 252.160156 244.085938 Z M 227.644531 291.773438 C 230.792969 293.453125 233.957031 294.433594 237.449219 293.6875 C 234.300781 299.820312 229.746094 305.433594 224.808594 310.242188 C 238.859375 308.378906 251.625 302.300781 260.105469 290.957031 C 268.589844 279.613281 271.617188 265.695312 265.898438 252.734375 C 257.121094 268.96875 243.699219 282.660156 227.644531 291.773438 Z M 276.398438 203.09375 C 276.925781 203.972656 277.75 204.949219 278.75 204.738281 C 279.410156 204.605469 279.867188 203.964844 279.992188 203.304688 C 280.113281 202.644531 279.96875 201.960938 279.8125 201.3125 C 278.632812 196.457031 276.664062 191.828125 274.53125 187.308594 C 273.972656 186.128906 272.273438 183.941406 270.863281 185.492188 C 270.019531 186.425781 271.003906 188.859375 271.234375 189.875 C 272.304688 194.550781 273.910156 198.984375 276.398438 203.09375 Z M 280.355469 176.671875 C 279.671875 178.320312 278.074219 179.167969 276.570312 180.128906 C 278.539062 181.5625 280.773438 182.65625 283.117188 183.324219 C 283.875 190.621094 286.628906 197.808594 291.554688 203.257812 C 292.769531 201.558594 293.421875 199.898438 294.648438 198.195312 C 290.691406 192.464844 288.054688 185.632812 287.203125 178.726562 C 285.140625 177.640625 282.652344 177.003906 280.355469 176.671875 Z M 296.828125 180.59375 C 294.570312 180.5 292.304688 180.398438 290.050781 180.308594 C 289.574219 180.285156 289.070312 180.277344 288.667969 180.523438 C 288.3125 180.75 288.101562 181.152344 288 181.570312 C 287.621094 183.160156 288.761719 184.8125 290.234375 185.523438 C 291.707031 186.238281 293.421875 186.222656 295.050781 186.113281 C 296.726562 185.996094 300.984375 185.914062 301.410156 183.757812 C 301.875 181.347656 298.441406 180.664062 296.828125 180.59375 Z M 294.894531 179.003906 C 295.71875 179.609375 296.988281 179.710938 297.6875 178.964844 C 298.464844 178.136719 298.160156 176.800781 297.8125 175.722656 C 296.363281 171.25 295.230469 166.445312 293.359375 162.140625 C 288.21875 164.652344 291.707031 172.5625 293.242188 176.476562 C 293.625 177.421875 294.082031 178.398438 294.894531 179.003906 Z M 312.886719 171.800781 C 311.003906 163.574219 308.996094 156.15625 307.109375 147.929688 C 304.148438 150.167969 301.417969 152.710938 298.976562 155.519531 C 297.835938 156.828125 296.742188 158.21875 296.074219 159.820312 C 294.917969 162.597656 295.128906 165.792969 296.042969 168.652344 C 296.957031 171.515625 298.625 174.578125 300.183594 177.152344 C 299.386719 172.027344 299.71875 166.753906 300.648438 161.644531 C 301.828125 166.007812 304.226562 170.050781 307.496094 173.164062 C 305.746094 168.566406 304.90625 163.613281 305.070312 158.691406 C 307.367188 163.242188 309.980469 167.621094 312.886719 171.800781 Z M 321.984375 164.335938 C 321.152344 164 320.246094 163.9375 319.363281 163.878906 C 318.191406 163.800781 317.019531 163.722656 315.847656 163.644531 C 315.167969 163.597656 314.46875 163.558594 313.800781 163.746094 C 313.144531 163.929688 312.523438 164.398438 312.335938 165.054688 C 312.058594 166.046875 312.847656 167.039062 313.71875 167.597656 C 315.429688 168.691406 324.675781 170.085938 323.757812 166.195312 C 323.550781 165.328125 322.804688 164.667969 321.984375 164.335938 Z M 327.472656 155.230469 C 321.890625 152.503906 317.113281 148.144531 313.886719 142.824219 C 313.664062 142.453125 311.5 143.917969 311.320312 144.253906 C 310.816406 145.183594 311.210938 145.757812 311.5625 146.742188 C 312.257812 148.734375 313.375 150.640625 314.585938 152.355469 C 317.050781 155.828125 320.363281 158.714844 324.1875 160.613281 C 325.464844 161.25 326.871094 161.785156 328.289062 161.589844 C 329.699219 161.394531 331.074219 160.242188 331.042969 158.8125 C 331.003906 157.03125 329.070312 156.007812 327.472656 155.230469 Z M 322.875 150.875 C 322.820312 149.285156 322.742188 147.539062 323.417969 146.050781 C 323.921875 144.933594 325.394531 143.972656 325.332031 142.648438 C 325.210938 140.152344 320.261719 138.6875 318.308594 138.183594 C 317.71875 138.027344 317.058594 137.910156 316.53125 138.210938 C 315.703125 138.679688 315.65625 139.847656 315.8125 140.785156 C 316.5 144.972656 319.175781 148.789062 322.875 150.875 Z M 322.875 150.875 " fill-opacity="1" fill-rule="nonzero"/><path fill="#a6a6a6" d="M 119.703125 222.261719 C 141.402344 220.71875 160.308594 216.246094 176.65625 210.074219 C 166.007812 219.460938 145.921875 235.644531 123.746094 245.675781 L 115.238281 240.917969 C 118.859375 234.316406 119.574219 225.976562 119.703125 222.261719 Z M 269.140625 126.914062 C 269.910156 124.171875 270.570312 121.867188 271.335938 119.125 C 224.859375 104.066406 177.082031 90.894531 129.5 79.8125 C 119.378906 88.070312 108.800781 95.148438 97.214844 101.175781 C 95.003906 105.585938 92.640625 110.214844 90.429688 114.617188 C 104.636719 116.671875 119.347656 115.121094 132.808594 110.144531 C 128.949219 114.417969 123.472656 117.410156 117.960938 119.078125 C 124.394531 119.148438 130.847656 118.230469 137.035156 116.472656 C 123.769531 122.691406 109.058594 126.0625 94.40625 125.644531 C 96.898438 129.878906 100.015625 133.054688 104.683594 134.605469 C 101.277344 135.554688 96.820312 135.675781 93.570312 134.289062 C 88.171875 145.949219 80.386719 156.726562 72.6875 167.007812 C 94.757812 167.785156 117.804688 159.652344 134.160156 144.820312 C 131.453125 152.222656 126.464844 158.589844 120.347656 163.566406 C 134.253906 160.746094 147.832031 155.023438 159.246094 146.59375 C 155.355469 151 151.570312 155.511719 147.675781 159.914062 C 153.894531 158.550781 159.585938 156.171875 165.101562 152.984375 C 152.152344 169.539062 133.167969 182.199219 112.972656 188.03125 C 149.714844 192.070312 188.527344 177.230469 213.460938 149.945312 C 210.636719 150.734375 207.109375 151.929688 204.289062 152.71875 C 207.023438 150.511719 210.011719 147.757812 212.746094 145.554688 C 213.105469 145.996094 213.265625 146.402344 213.625 146.84375 C 223.667969 140.414062 232.492188 132.515625 239.804688 123.101562 C 240.9375 123.355469 242.070312 123.589844 243.203125 123.8125 C 222.605469 155.285156 193.175781 180.917969 159.144531 196.953125 C 197.890625 186.464844 232.21875 159.992188 252.320312 125.265625 C 257.898438 125.992188 263.511719 126.457031 269.140625 126.914062 Z M 112.703125 215.191406 C 111.554688 211.484375 111.152344 207.769531 110.003906 204.0625 C 108.507812 207.328125 107.25 210.617188 105.753906 213.878906 C 103.753906 200.902344 102.519531 187.945312 100.519531 174.972656 C 94.46875 185.269531 88.445312 195.636719 82.394531 205.933594 C 82.324219 200.816406 83.179688 195.324219 83.109375 190.207031 C 80.023438 195.378906 77.417969 199.90625 74.332031 205.078125 C 59.828125 208.226562 43.832031 209.652344 29.011719 208.847656 C 47.078125 215.742188 65.101562 220.261719 84.441406 220.53125 C 85.398438 217.964844 86.582031 215.507812 87.527344 212.941406 C 89.644531 212.855469 92.546875 213.175781 94.65625 213.089844 C 95.601562 215.484375 97.167969 218.292969 98.113281 220.6875 C 117.890625 220.445312 137.578125 217.632812 156.898438 213.382812 C 142.324219 215.941406 127.40625 216.820312 112.703125 215.191406 Z M 285.984375 212.167969 C 280.394531 207.691406 274.75 203.164062 270.359375 197.511719 C 269.09375 195.882812 267.910156 194.085938 267.644531 192.039062 C 267.382812 189.992188 268.3125 187.664062 270.234375 186.921875 C 268.699219 185.441406 267.605469 184.246094 265.847656 183.042969 C 262.550781 185.230469 261.402344 189.742188 262.207031 193.613281 C 263.015625 197.480469 265.410156 200.832031 267.984375 203.824219 C 270.367188 206.589844 272.964844 209.1875 275.742188 211.5625 C 271.5 210.484375 267.335938 208.5 264.195312 205.453125 C 265.984375 209.4375 268.519531 213.382812 271.972656 216.058594 C 270.777344 217.601562 269.164062 219.082031 267.96875 220.632812 C 272.53125 224.898438 276.964844 229.125 281.527344 233.386719 C 285.496094 227.828125 289.414062 222.710938 293.390625 217.152344 C 290.863281 215.789062 288.242188 213.972656 285.984375 212.167969 Z M 285.984375 212.167969 " fill-opacity="1" fill-rule="nonzero"/><path fill="#000000" d="M 117.316406 220.167969 C 139.054688 218.882812 161.109375 214.839844 181.410156 206.972656 C 179.511719 211.304688 175.625 214.40625 171.699219 217.058594 C 167.777344 219.703125 163.828125 221.796875 160.796875 225.425781 C 152.863281 227.558594 144.425781 228.535156 136.355469 227 C 138.144531 228.671875 140.054688 230.410156 142.324219 231.339844 C 133.878906 231.386719 125.425781 228.9375 118.316406 224.378906 C 118.015625 222.90625 117.625 221.625 117.316406 220.167969 Z M 30.785156 209.429688 L 48.863281 190.96875 L 48.863281 199.582031 L 70.492188 161.628906 L 60.441406 171.847656 L 87.5 121.140625 Z M 30.785156 209.429688 " fill-opacity="1" fill-rule="nonzero"/><path fill="#012130" d="M 336.671875 150.394531 C 335.398438 147.742188 333.175781 144.835938 330.40625 142.207031 C 327.644531 139.59375 324.621094 137.53125 321.890625 136.398438 C 317.074219 134.398438 314.632812 135.917969 313.609375 136.996094 L 285.914062 166.242188 C 290.652344 110.417969 309.453125 86.125 309.644531 85.882812 L 311.640625 83.402344 L 308.933594 81.742188 C 266.148438 55.429688 246.613281 17.085938 246.417969 16.699219 L 245.636719 15.15625 L 103.023438 15.15625 L 102.242188 16.699219 C 102.046875 17.085938 82.558594 55.398438 39.734375 81.734375 L 37.035156 83.394531 L 39.015625 85.875 C 39.175781 86.078125 55.058594 106.570312 61.292969 152.992188 L 23.101562 212.453125 L 26.878906 213.40625 C 38.472656 216.34375 50.074219 218.695312 61.355469 220.378906 C 60.175781 239.488281 60.308594 261.742188 75.042969 284.839844 C 91.203125 310.164062 122.355469 333.65625 173.089844 358.777344 L 174.335938 359.390625 L 175.585938 358.777344 C 220.496094 336.550781 250.699219 314.996094 267.917969 292.898438 C 284.464844 271.660156 287.28125 252.261719 287.691406 237.527344 C 293.328125 239.824219 297.238281 239.675781 299.480469 237.273438 L 304.785156 231.675781 C 310.335938 225.8125 300.347656 212.105469 293.539062 204.085938 L 336.53125 158.675781 C 337.546875 157.613281 338.921875 155.101562 336.671875 150.394531 Z M 302.324219 186.664062 L 295.398438 193.96875 C 292.761719 190.0625 291.28125 185.773438 290.453125 182.5 C 293.414062 182.957031 296.128906 183.058594 297.964844 183.058594 C 298.457031 183.058594 298.898438 183.050781 299.277344 183.042969 C 300.214844 184.300781 301.230469 185.515625 302.324219 186.664062 Z M 285.070312 175.296875 L 292.746094 167.195312 C 293.167969 169.964844 294.058594 173.5625 295.894531 177.398438 C 292.964844 177.265625 288.644531 176.792969 285.070312 175.296875 Z M 222.8125 312.164062 L 224.273438 300.292969 L 224.90625 294.90625 C 225.109375 293.371094 225.410156 291.875 225.921875 289.910156 C 227.503906 284.011719 230.234375 277.917969 234.5 270.738281 C 237.710938 265.355469 241.679688 259.8125 246.992188 253.277344 C 251.40625 247.855469 256.199219 241.460938 261.253906 236.015625 C 261.253906 236.015625 249.484375 244.785156 244.054688 250.695312 C 243.101562 251.53125 223.644531 268.75 212.980469 289.863281 C 213.949219 286.167969 215.539062 281.359375 218.066406 276.589844 L 220.253906 272.457031 L 216.851562 275.667969 C 216.710938 275.800781 203.046875 288.933594 202.90625 311.425781 L 197.183594 316.746094 L 202.171875 327.367188 L 195.820312 322.335938 L 200.773438 339.054688 C 192.632812 343.738281 183.730469 348.480469 174.308594 353.171875 C 169.839844 350.941406 165.816406 348.878906 162.046875 346.882812 L 164.265625 289.335938 L 149.515625 284.289062 L 151.769531 273.078125 L 123.28125 251.175781 C 142.613281 242.863281 160.550781 229.757812 172.3125 220.097656 C 175.859375 218.617188 179.535156 216.65625 183.046875 214.382812 C 180.710938 216.820312 178.230469 218.988281 175.710938 220.796875 L 175.40625 221.011719 L 175.390625 221.386719 C 175.191406 225.207031 173.554688 228.867188 172.210938 231.261719 L 171.105469 233.25 L 173.199219 232.347656 C 184.015625 227.710938 193.703125 221.253906 201.496094 213.507812 C 199.640625 217.066406 197.46875 220.625 195.253906 223.710938 L 192.289062 227.828125 L 196.355469 224.78125 C 207.335938 216.539062 216.253906 205.660156 222.238281 193.222656 L 227.21875 211.941406 C 226.769531 214.011719 226.117188 216.351562 225.335938 218.710938 L 225.289062 218.835938 C 224.457031 221.199219 223.597656 223.640625 222.574219 225.976562 L 222.386719 226.417969 C 221.945312 227.441406 221.488281 228.503906 220.976562 229.503906 C 220.742188 229.953125 220.527344 230.402344 220.308594 230.859375 C 219.96875 231.566406 219.617188 232.300781 219.222656 233 C 218.96875 233.457031 218.726562 233.921875 218.480469 234.386719 C 218.105469 235.078125 217.742188 235.769531 217.363281 236.433594 L 215.324219 239.816406 C 214.917969 240.519531 214.460938 241.1875 213.980469 241.886719 C 213.710938 242.28125 213.4375 242.675781 213.183594 243.070312 L 213.042969 243.273438 C 212.351562 244.3125 211.691406 245.296875 210.925781 246.265625 L 208.582031 249.414062 L 206.054688 252.492188 C 205.015625 253.828125 203.84375 255.105469 202.714844 256.339844 C 202.078125 257.027344 201.441406 257.726562 200.835938 258.425781 C 199.882812 259.464844 198.859375 260.496094 197.867188 261.496094 C 197.003906 262.363281 196.113281 263.253906 195.253906 264.175781 L 190.46875 269.277344 L 196.253906 265.347656 C 197.253906 264.664062 198.253906 263.945312 199.222656 263.246094 L 199.574219 262.992188 C 199.882812 262.757812 200.191406 262.542969 200.511719 262.308594 C 201.292969 261.75 202.109375 261.167969 202.835938 260.511719 L 205.886719 257.890625 C 206.824219 257.128906 207.675781 256.277344 208.492188 255.453125 L 208.871094 255.066406 C 213.121094 251.019531 216.59375 246.460938 219.441406 242.523438 C 222.503906 238.195312 225.257812 233.378906 227.613281 228.238281 C 228.21875 227 228.746094 225.710938 229.257812 224.449219 C 229.667969 223.515625 230.003906 222.546875 230.328125 221.617188 C 230.453125 221.261719 230.578125 220.914062 230.714844 220.53125 C 231.21875 218.972656 231.738281 217.316406 232.175781 215.59375 L 268.460938 228.292969 C 269.808594 229.371094 275.617188 234.226562 281.828125 242.558594 C 280.214844 265.480469 271.390625 293.484375 219.324219 327.6875 C 218.96875 326.40625 218.578125 325.082031 218.167969 323.769531 C 217.570312 321.863281 216.9375 319.964844 216.230469 317.980469 Z M 141.890625 319.105469 L 145.589844 318.839844 L 142.101562 317.597656 C 134.851562 315.023438 128.117188 310.085938 122.859375 303.535156 C 126.085938 305.242188 129.746094 306.945312 133.957031 308.707031 L 135.128906 309.195312 L 135.035156 307.929688 C 134.671875 303.125 134.59375 298.167969 134.8125 293.199219 C 137.449219 293.679688 140.300781 294.261719 143.488281 294.972656 C 147.210938 295.859375 150.578125 296.765625 153.765625 297.742188 L 158.285156 299.121094 L 156.5625 343.929688 C 150.53125 340.652344 144.753906 337.347656 139.371094 334.097656 C 138.679688 331.019531 138.464844 327.925781 138.347656 324.246094 L 138.332031 323.6875 L 137.796875 323.523438 C 133.679688 322.28125 129.613281 320.273438 125.832031 317.636719 C 130.625 319.019531 136.089844 319.523438 141.890625 319.105469 Z M 154.390625 296.347656 C 151.546875 294.5625 148.320312 292.996094 144.527344 291.546875 C 141.503906 290.414062 138.183594 289.390625 134.089844 288.335938 C 130.515625 287.4375 126.933594 286.679688 123.449219 286.097656 C 120.457031 285.570312 117.585938 285.175781 114.695312 284.878906 L 112.632812 275.738281 L 112.234375 274.039062 L 86.015625 267.757812 C 87.210938 264.8125 88.453125 262.160156 89.792969 259.6875 C 91.972656 255.703125 94.058594 252.3125 96.175781 249.3125 C 98.527344 245.925781 101.023438 242.660156 103.589844 239.597656 C 105.542969 237.273438 107.511719 235.0625 109.46875 233.039062 L 111.910156 236.722656 C 111.359375 237.992188 110.746094 239.125 110.074219 240.109375 L 108.359375 242.636719 L 110.910156 244.066406 C 106.964844 249.351562 103.9375 255.4375 102.132812 261.726562 L 101.214844 264.921875 L 103.449219 262.457031 C 104.457031 261.339844 105.503906 260.136719 106.519531 258.976562 C 105.675781 261.433594 105.046875 263.992188 104.691406 266.441406 L 104.582031 267.195312 L 105.328125 267.316406 C 110.265625 268.164062 114.632812 269.496094 118.679688 271.394531 L 119.511719 271.785156 L 119.75 270.890625 C 119.976562 270.070312 120.167969 269.226562 120.347656 268.386719 C 121.101562 273.433594 122.457031 278.558594 124.335938 283.445312 L 125.179688 285.640625 L 125.902344 283.042969 C 126.550781 280.683594 127.265625 278.101562 128.078125 275.652344 C 128.140625 276.382812 128.210938 277.109375 128.273438 277.839844 C 128.4375 279.746094 128.605469 281.644531 128.792969 283.578125 L 128.878906 284.453125 L 129.730469 284.257812 C 134.160156 283.273438 139.183594 283.625 143.621094 285.199219 L 143.0625 288.003906 L 158.496094 293.285156 L 158.285156 298.773438 Z M 66.917969 221.183594 C 71.980469 221.851562 76.890625 222.378906 81.542969 222.75 C 80.796875 235.675781 81.054688 246.625 84.519531 257.6875 C 82.761719 260.984375 81.148438 264.613281 79.589844 268.78125 L 78.503906 271.722656 L 91.65625 274.863281 C 90.011719 277.925781 87.359375 283.140625 84.882812 289.183594 C 68.035156 267.300781 65.433594 246.824219 66.917969 221.183594 Z M 242.230469 20.785156 C 246.328125 28.183594 265.898438 60.949219 303.441406 84.9375 C 298.160156 92.941406 283.023438 120.140625 279.8125 172.699219 L 270.621094 182.40625 C 269.195312 181.332031 267.195312 179.863281 264.882812 178.328125 C 264.921875 176.375 265 174.492188 265.117188 172.585938 C 265.992188 157.550781 267.910156 143.175781 270.808594 129.863281 C 275.429688 121.519531 277.625 115.84375 278.019531 114.78125 L 279.097656 111.820312 L 275.78125 111.027344 C 277.960938 104.113281 280.464844 97.546875 283.226562 91.503906 L 284.148438 89.472656 L 282.363281 88.117188 C 257.5625 69.207031 241.859375 47.8125 234.710938 36.75 L 233.878906 35.46875 L 114.757812 35.46875 L 113.925781 36.75 C 106.777344 47.8125 91.082031 69.207031 66.273438 88.117188 L 64.488281 89.472656 L 65.417969 91.511719 C 70.304688 102.160156 74.339844 114.402344 77.402344 127.902344 L 65.886719 145.828125 C 60.199219 110.300781 49.148438 90.953125 45.1875 84.945312 C 82.746094 60.957031 102.316406 28.191406 106.414062 20.792969 L 242.230469 20.792969 Z M 272.367188 188.710938 C 272.996094 191.742188 274.246094 195.851562 276.703125 200.675781 C 276.40625 200.410156 276.105469 200.148438 275.8125 199.871094 C 271.234375 195.527344 270.019531 191.953125 270.042969 191.167969 Z M 120.457031 222.984375 C 138.953125 221.609375 156.59375 218.003906 172.980469 212.234375 C 162.203125 221.441406 143.8125 235.675781 123.792969 244.808594 L 116.292969 240.605469 C 119.496094 234.304688 120.269531 226.65625 120.457031 222.984375 Z M 117.804688 41.082031 L 230.832031 41.082031 C 239.550781 54.320312 254.59375 73.601562 277.207031 91.21875 C 274.71875 96.878906 272.398438 103.105469 270.320312 109.734375 L 113.246094 72.097656 L 81.613281 121.339844 C 78.859375 110.417969 75.445312 100.289062 71.445312 91.21875 C 94.082031 73.5625 109.109375 54.296875 117.804688 41.082031 Z M 262.613281 143.144531 C 261.136719 152.480469 260.097656 162.257812 259.503906 172.25 C 259.457031 173.144531 259.410156 174.042969 259.371094 174.949219 C 252.28125 171.019531 247.078125 169.886719 243.882812 171.59375 C 243.355469 171.871094 242.875 172.234375 242.441406 172.675781 L 237.121094 178.296875 C 234.183594 181.398438 235.253906 187.050781 240.292969 195.09375 C 240.984375 196.195312 241.75 197.304688 242.402344 198.234375 L 232.21875 209.003906 L 225.402344 183.371094 C 230.523438 179.308594 235.398438 174.972656 239.921875 170.484375 C 248.359375 162.101562 255.972656 152.921875 262.613281 143.144531 Z M 87.273438 220.765625 L 88.761719 217.429688 C 90.65625 217.71875 92.46875 217.902344 94.160156 217.988281 L 94.65625 223.511719 L 97.152344 223.5625 C 98.75 223.59375 100.851562 223.632812 102.953125 223.632812 C 103.046875 223.632812 103.132812 223.632812 103.226562 223.632812 L 106.296875 228.246094 C 104 230.582031 101.707031 233.117188 99.285156 235.984375 C 96.59375 239.203125 93.996094 242.613281 91.5625 246.113281 C 90.546875 247.554688 89.53125 249.097656 88.476562 250.792969 C 86.480469 241.636719 86.542969 232.09375 87.273438 220.765625 Z M 277.980469 225.527344 C 273.160156 222.128906 268.039062 217.902344 263.140625 213.257812 C 255.546875 206.085938 249.132812 198.574219 245.0625 192.109375 C 240.828125 185.378906 240.960938 182.5 241.214844 182.152344 L 241.679688 181.664062 C 242.464844 183.941406 243.78125 186.570312 245.621094 189.496094 C 249.910156 196.324219 256.648438 204.226562 264.589844 211.738281 C 269.382812 216.277344 274.445312 220.476562 279.261719 223.929688 Z M 96.050781 109.253906 C 97.113281 109.308594 98.261719 109.332031 99.472656 109.332031 C 109.949219 109.332031 135.765625 107.222656 152.011719 87.929688 C 153.003906 90.667969 155.214844 97.917969 154.949219 107.617188 C 154.640625 119.054688 150.722656 136.34375 133.824219 153.773438 L 131.304688 156.378906 L 134.671875 155.039062 C 134.964844 154.921875 161.292969 144.238281 173.957031 125.234375 C 171.585938 132.179688 166.847656 143.367188 158.734375 152.464844 L 154.917969 156.734375 L 159.734375 153.625 C 159.867188 153.542969 170.839844 146.410156 177.78125 138.585938 C 172.902344 149.246094 159.167969 172.957031 129.621094 185.035156 L 123.371094 187.59375 L 130.042969 186.523438 C 131.664062 186.261719 170.082031 179.886719 200.503906 158.132812 L 203.984375 155.644531 L 187.871094 159.96875 C 195.917969 154.636719 212.578125 142.308594 222 126.242188 C 220.960938 130.628906 219.039062 136.972656 215.828125 141.710938 L 213.335938 145.390625 L 216.929688 142.773438 C 217.050781 142.679688 229.296875 133.652344 236.609375 119.449219 L 267.015625 125 C 261.292969 135.675781 251.351562 151.269531 235.859375 166.636719 C 211.679688 190.605469 168.484375 218.902344 99.804688 218.019531 L 96.914062 185.402344 L 82.714844 217.230469 C 66.550781 215.964844 49.507812 213.175781 32.027344 208.933594 Z M 250.367188 186.511719 C 246.132812 179.773438 246.265625 176.894531 246.519531 176.546875 C 247.203125 175.878906 253.695312 176.6875 266.730469 186.515625 L 265.839844 187.457031 C 263.8125 189.59375 264.03125 193.046875 266.449219 197.179688 L 266.496094 197.273438 C 266.960938 198.046875 267.457031 198.792969 267.957031 199.449219 C 270.359375 202.886719 276.40625 210.722656 284.363281 215.460938 C 280.914062 215.082031 275.515625 213.902344 271.289062 210.296875 C 270.351562 209.453125 269.40625 208.585938 268.445312 207.667969 C 260.828125 200.457031 254.40625 192.945312 250.367188 186.511719 Z M 281.03125 179.570312 C 282.0625 180.128906 283.195312 180.617188 284.394531 181.035156 C 284.992188 184.363281 286.753906 191.679688 291.460938 198.125 L 285.472656 204.453125 C 278.394531 194.023438 277.445312 186.105469 277.347656 183.460938 Z M 297.980469 161.660156 L 305.527344 153.6875 C 306.378906 159.148438 308.480469 166.785156 313.515625 174.832031 L 306.1875 182.570312 C 298.507812 174.320312 297.929688 164.847656 297.980469 161.660156 Z M 321.136719 166.785156 L 317.515625 170.605469 C 316.703125 169.210938 315.941406 167.785156 315.269531 166.34375 C 317.207031 166.550781 319.175781 166.699219 321.136719 166.785156 Z M 317.828125 141.019531 C 319.128906 141.167969 322.582031 142.53125 326.582031 146.324219 C 326.863281 146.59375 327.140625 146.859375 327.414062 147.144531 L 327.621094 147.363281 C 327.816406 147.570312 328.007812 147.765625 328.210938 147.996094 C 328.296875 148.082031 328.367188 148.160156 328.480469 148.308594 L 328.628906 148.472656 C 328.722656 148.570312 328.808594 148.671875 328.894531 148.773438 L 330.085938 150.316406 C 331.601562 152.441406 332.152344 153.984375 332.273438 154.6875 C 331.089844 154.550781 327.722656 153.347656 323.582031 149.425781 C 319.433594 145.5 318.035156 142.183594 317.828125 141.019531 Z M 310.621094 148.324219 L 313.460938 145.324219 C 314.75 148.003906 316.972656 150.90625 319.726562 153.503906 C 322.480469 156.109375 325.511719 158.179688 328.226562 159.308594 L 326.371094 161.273438 C 319.867188 161.320312 315.074219 160.722656 312.925781 160.378906 C 311.097656 154.75 310.699219 150.277344 310.621094 148.324219 Z M 182.488281 191.03125 C 192.476562 186.710938 201.960938 181.332031 210.667969 175.035156 C 219.527344 168.628906 227.597656 161.3125 234.679688 153.277344 C 238.160156 149.339844 241.519531 145.042969 244.652344 140.5 C 247.335938 136.46875 250.058594 130.480469 252.335938 125.273438 C 252.335938 125.273438 239.496094 141.617188 231.242188 150.058594 C 226.886719 154.417969 223.234375 157.820312 219.734375 160.777344 C 215.6875 164.289062 211.539062 167.550781 207.382812 170.492188 C 205.863281 171.636719 204.257812 172.730469 202.699219 173.785156 C 202.109375 174.179688 201.527344 174.585938 200.96875 174.972656 L 199.410156 175.964844 C 197.742188 177.035156 196.019531 178.136719 194.269531 179.152344 C 189.933594 181.867188 185.273438 184.277344 180.773438 186.601562 L 180.503906 186.742188 C 171.59375 191.144531 162.269531 195.835938 151.476562 199.574219 C 151.46875 199.582031 172.25 195.402344 182.488281 191.03125 Z M 192.957031 247.160156 L 193.484375 246.617188 C 195.671875 244.328125 197.585938 242.132812 199.316406 239.917969 L 199.316406 239.910156 C 203.039062 235.070312 205.660156 230.867188 207.574219 226.695312 L 209.515625 222.464844 L 205.589844 226.589844 C 202.230469 230.125 199.058594 233.457031 195.757812 236.785156 C 193.902344 238.644531 192.066406 240.453125 190.28125 242.15625 C 188.902344 242.832031 187.257812 243.558594 185.511719 244.273438 C 184.660156 244.613281 183.804688 244.949219 182.914062 245.265625 C 182.078125 245.601562 181.214844 245.902344 180.332031 246.203125 C 177.222656 247.28125 173.832031 248.296875 169.691406 249.390625 C 165.855469 250.335938 162.269531 251.082031 158.742188 251.6875 L 141.339844 254.671875 L 147.628906 255.144531 C 149.453125 255.285156 151.40625 255.40625 153.414062 255.429688 L 154.5 255.414062 C 156.035156 255.398438 157.617188 255.378906 159.175781 255.246094 L 162.070312 255.019531 L 164.898438 254.679688 C 166.328125 254.523438 167.753906 254.292969 169.140625 254.066406 C 169.628906 253.988281 170.117188 253.902344 170.625 253.828125 C 173.5625 253.320312 176.53125 252.671875 179.488281 251.886719 C 177.6875 253.382812 175.726562 254.957031 173.5 256.695312 C 172.515625 257.433594 171.5 258.191406 170.507812 258.976562 C 169.964844 259.371094 169.40625 259.757812 168.847656 260.144531 C 168.375 260.472656 167.894531 260.804688 167.421875 261.144531 L 165.921875 262.238281 L 164.324219 263.277344 C 163.308594 263.945312 162.214844 264.664062 161.132812 265.464844 L 157.632812 268.007812 L 161.789062 266.835938 C 162.96875 266.503906 164.15625 266.117188 165.304688 265.734375 L 165.488281 265.671875 C 166.1875 265.441406 166.800781 265.222656 167.382812 265 L 169.164062 264.222656 C 169.570312 264.03125 169.972656 263.851562 170.382812 263.664062 C 171.160156 263.308594 171.933594 262.953125 172.71875 262.566406 C 173.855469 261.945312 174.980469 261.300781 176.128906 260.640625 C 180.804688 257.8125 185.023438 254.679688 188.667969 251.328125 C 190.027344 250.105469 191.382812 248.785156 192.957031 247.160156 Z M 146.667969 118.589844 L 147.445312 116.558594 L 145.558594 117.640625 C 128.878906 127.234375 103.078125 129.699219 102.820312 129.722656 L 100.046875 129.976562 L 102.558594 131.195312 C 109.085938 134.359375 116.972656 134.785156 121.71875 134.691406 C 110.777344 138.964844 99.097656 138.203125 98.976562 138.195312 L 98.503906 138.167969 L 85.007812 160.691406 L 86.691406 160.386719 C 133.5 151.921875 146.542969 118.921875 146.667969 118.589844 Z M 257.332031 289.175781 C 263.761719 280.414062 267.171875 269.496094 266.707031 259.222656 L 266.589844 256.679688 L 265.273438 258.859375 C 257.570312 271.558594 247 282.683594 234.710938 291.019531 L 231.382812 293.277344 L 235.308594 292.414062 C 239.371094 291.53125 243.242188 290.128906 246.863281 288.246094 C 241.804688 295.128906 235.445312 301.332031 230.289062 306.117188 L 228.007812 308.234375 L 231.019531 307.433594 C 241.078125 304.765625 250.917969 297.945312 257.332031 289.175781 Z M 257.332031 289.175781 " fill-opacity="1" fill-rule="nonzero"/><g fill="#a6a6a6" fill-opacity="1"><g transform="translate(166.830682, 290.725351)"><g><path d="M 9.679688 -0.613281 C 9.085938 -2.609375 8.761719 -4.679688 8.472656 -6.730469 C 8.421875 -7.144531 8.457031 -7.179688 8.871094 -7.160156 C 9.429688 -7.144531 9.984375 -7.144531 10.542969 -7.214844 C 10.707031 -7.25 10.847656 -7.269531 10.992188 -7.339844 C 11.082031 -7.375 11.171875 -7.429688 11.171875 -7.558594 C 11.191406 -7.699219 11.082031 -7.753906 10.976562 -7.808594 C 10.777344 -7.898438 10.578125 -7.878906 10.363281 -7.863281 C 9.804688 -7.808594 9.25 -7.863281 8.691406 -7.878906 C 8.4375 -7.878906 8.3125 -7.988281 8.292969 -8.242188 C 8.292969 -8.3125 8.277344 -8.402344 8.277344 -8.492188 C 8.097656 -10.453125 7.933594 -12.433594 7.773438 -14.410156 C 7.699219 -15.367188 7.738281 -15.238281 6.855469 -15.238281 C 6.242188 -15.238281 6.242188 -15.222656 6.082031 -14.628906 C 6.046875 -14.519531 6.007812 -14.394531 5.972656 -14.285156 C 5.308594 -12.414062 4.515625 -10.597656 3.8125 -8.746094 C 3.707031 -8.472656 3.5625 -8.382812 3.273438 -8.4375 C 2.625 -8.546875 1.960938 -8.546875 1.296875 -8.492188 C 0.433594 -8.4375 -0.359375 -8.152344 -1.0625 -7.628906 C -1.1875 -7.539062 -1.332031 -7.414062 -1.4375 -7.285156 C -1.566406 -7.144531 -1.511719 -7 -1.332031 -6.945312 C -1.042969 -6.855469 -0.753906 -6.835938 -0.484375 -6.964844 C -0.34375 -7.035156 -0.199219 -7.105469 -0.0703125 -7.179688 C 0.9375 -7.773438 2.015625 -7.808594 3.128906 -7.648438 C 3.273438 -7.628906 3.347656 -7.574219 3.292969 -7.429688 C 3.273438 -7.339844 3.238281 -7.269531 3.21875 -7.179688 C 2.304688 -4.839844 1.582031 -2.429688 0.898438 -0.0195312 C 0.863281 0.109375 0.828125 0.234375 0.792969 0.378906 C 0.773438 0.46875 0.828125 0.523438 0.898438 0.574219 C 1.3125 0.808594 1.601562 0.71875 1.761719 0.269531 C 1.835938 0.0898438 1.90625 -0.109375 1.960938 -0.304688 C 2.230469 -1.167969 2.5 -2.050781 2.769531 -2.933594 C 3.203125 -4.355469 3.671875 -5.777344 4.191406 -7.179688 C 4.316406 -7.558594 4.335938 -7.558594 4.730469 -7.519531 C 5.019531 -7.503906 5.308594 -7.46875 5.59375 -7.429688 C 6.027344 -7.394531 6.027344 -7.394531 6.082031 -6.964844 C 6.207031 -5.972656 6.371094 -4.984375 6.601562 -4.011719 C 6.964844 -2.589844 7.414062 -1.207031 8.097656 0.0898438 C 8.582031 1.027344 9.339844 1.386719 10.34375 1.3125 C 10.757812 1.296875 11.066406 1.132812 11.316406 0.828125 C 11.515625 0.574219 11.675781 0.289062 11.804688 0 C 12.523438 -1.492188 13.171875 -3.039062 13.710938 -4.605469 C 13.871094 -5.039062 14 -5.46875 14.105469 -5.917969 C 14.160156 -6.152344 14.089844 -6.28125 13.871094 -6.332031 C 13.746094 -6.351562 13.636719 -6.351562 13.511719 -6.386719 C 13.332031 -6.441406 13.222656 -6.371094 13.171875 -6.1875 C 13.152344 -6.117188 13.132812 -6.027344 13.097656 -5.957031 C 12.449219 -4.011719 11.660156 -2.140625 10.6875 -0.359375 C 10.542969 -0.0898438 10.382812 0.179688 10.128906 0.433594 C 9.878906 0.0703125 9.789062 -0.269531 9.679688 -0.613281 Z M 5.757812 -11.300781 C 5.917969 -11.191406 5.847656 -11.066406 5.847656 -10.957031 C 5.867188 -10.148438 5.867188 -9.339844 5.917969 -8.527344 C 5.957031 -8.1875 5.9375 -8.167969 5.613281 -8.1875 C 5.289062 -8.203125 4.964844 -8.222656 4.625 -8.347656 C 5 -9.339844 5.378906 -10.308594 5.757812 -11.300781 Z M 5.757812 -11.300781 "/></g></g></g><g fill="#a6a6a6" fill-opacity="1"><g transform="translate(179.56641, 290.725351)"><g><path d="M 9.679688 -0.613281 C 9.085938 -2.609375 8.761719 -4.679688 8.472656 -6.730469 C 8.421875 -7.144531 8.457031 -7.179688 8.871094 -7.160156 C 9.429688 -7.144531 9.984375 -7.144531 10.542969 -7.214844 C 10.707031 -7.25 10.847656 -7.269531 10.992188 -7.339844 C 11.082031 -7.375 11.171875 -7.429688 11.171875 -7.558594 C 11.191406 -7.699219 11.082031 -7.753906 10.976562 -7.808594 C 10.777344 -7.898438 10.578125 -7.878906 10.363281 -7.863281 C 9.804688 -7.808594 9.25 -7.863281 8.691406 -7.878906 C 8.4375 -7.878906 8.3125 -7.988281 8.292969 -8.242188 C 8.292969 -8.3125 8.277344 -8.402344 8.277344 -8.492188 C 8.097656 -10.453125 7.933594 -12.433594 7.773438 -14.410156 C 7.699219 -15.367188 7.738281 -15.238281 6.855469 -15.238281 C 6.242188 -15.238281 6.242188 -15.222656 6.082031 -14.628906 C 6.046875 -14.519531 6.007812 -14.394531 5.972656 -14.285156 C 5.308594 -12.414062 4.515625 -10.597656 3.8125 -8.746094 C 3.707031 -8.472656 3.5625 -8.382812 3.273438 -8.4375 C 2.625 -8.546875 1.960938 -8.546875 1.296875 -8.492188 C 0.433594 -8.4375 -0.359375 -8.152344 -1.0625 -7.628906 C -1.1875 -7.539062 -1.332031 -7.414062 -1.4375 -7.285156 C -1.566406 -7.144531 -1.511719 -7 -1.332031 -6.945312 C -1.042969 -6.855469 -0.753906 -6.835938 -0.484375 -6.964844 C -0.34375 -7.035156 -0.199219 -7.105469 -0.0703125 -7.179688 C 0.9375 -7.773438 2.015625 -7.808594 3.128906 -7.648438 C 3.273438 -7.628906 3.347656 -7.574219 3.292969 -7.429688 C 3.273438 -7.339844 3.238281 -7.269531 3.21875 -7.179688 C 2.304688 -4.839844 1.582031 -2.429688 0.898438 -0.0195312 C 0.863281 0.109375 0.828125 0.234375 0.792969 0.378906 C 0.773438 0.46875 0.828125 0.523438 0.898438 0.574219 C 1.3125 0.808594 1.601562 0.71875 1.761719 0.269531 C 1.835938 0.0898438 1.90625 -0.109375 1.960938 -0.304688 C 2.230469 -1.167969 2.5 -2.050781 2.769531 -2.933594 C 3.203125 -4.355469 3.671875 -5.777344 4.191406 -7.179688 C 4.316406 -7.558594 4.335938 -7.558594 4.730469 -7.519531 C 5.019531 -7.503906 5.308594 -7.46875 5.59375 -7.429688 C 6.027344 -7.394531 6.027344 -7.394531 6.082031 -6.964844 C 6.207031 -5.972656 6.371094 -4.984375 6.601562 -4.011719 C 6.964844 -2.589844 7.414062 -1.207031 8.097656 0.0898438 C 8.582031 1.027344 9.339844 1.386719 10.34375 1.3125 C 10.757812 1.296875 11.066406 1.132812 11.316406 0.828125 C 11.515625 0.574219 11.675781 0.289062 11.804688 0 C 12.523438 -1.492188 13.171875 -3.039062 13.710938 -4.605469 C 13.871094 -5.039062 14 -5.46875 14.105469 -5.917969 C 14.160156 -6.152344 14.089844 -6.28125 13.871094 -6.332031 C 13.746094 -6.351562 13.636719 -6.351562 13.511719 -6.386719 C 13.332031 -6.441406 13.222656 -6.371094 13.171875 -6.1875 C 13.152344 -6.117188 13.132812 -6.027344 13.097656 -5.957031 C 12.449219 -4.011719 11.660156 -2.140625 10.6875 -0.359375 C 10.542969 -0.0898438 10.382812 0.179688 10.128906 0.433594 C 9.878906 0.0703125 9.789062 -0.269531 9.679688 -0.613281 Z M 5.757812 -11.300781 C 5.917969 -11.191406 5.847656 -11.066406 5.847656 -10.957031 C 5.867188 -10.148438 5.867188 -9.339844 5.917969 -8.527344 C 5.957031 -8.1875 5.9375 -8.167969 5.613281 -8.1875 C 5.289062 -8.203125 4.964844 -8.222656 4.625 -8.347656 C 5 -9.339844 5.378906 -10.308594 5.757812 -11.300781 Z M 5.757812 -11.300781 "/></g></g></g></svg>